<?xml version="1.0" encoding="utf-8"?>
<!-- Generator: Adobe Illustrator 15.1.0, SVG Export Plug-In . SVG Version: 6.00 Build 0)  -->
<!DOCTYPE svg PUBLIC "-//W3C//DTD SVG 1.1//EN" "http://www.w3.org/Graphics/SVG/1.1/DTD/svg11.dtd">
<svg version="1.1" id="Vrstva_1" xmlns="http://www.w3.org/2000/svg" xmlns:xlink="http://www.w3.org/1999/xlink" x="0px" y="0px"
	 width="175.578px" height="47px" viewBox="0 0 175.578 47" enable-background="new 0 0 175.578 47" xml:space="preserve">
<g>
	<path fill="#FFFFFF" d="M75.369,25.148c-0.519-0.34-1.218-0.629-2.097-0.868c-0.879-0.259-1.956-0.569-3.234-0.928
		c-0.778-0.221-1.377-0.449-1.796-0.689c-0.398-0.238-0.599-0.559-0.599-0.958c0-0.459,0.201-0.779,0.599-0.958
		c0.419-0.199,1.028-0.299,1.827-0.299c0.838,0,1.457,0.159,1.856,0.478c0.419,0.301,0.678,0.789,0.778,1.468h3.743
		c-0.1-1.518-0.638-2.704-1.617-3.563c-0.979-0.858-2.525-1.288-4.641-1.288c-1.158,0-2.137,0.12-2.935,0.36
		c-0.798,0.219-1.447,0.519-1.946,0.896c-0.499,0.38-0.869,0.82-1.108,1.318c-0.22,0.499-0.33,1.028-0.33,1.587
		c0,0.619,0.08,1.177,0.24,1.676c0.181,0.5,0.509,0.96,0.988,1.38c0.5,0.42,1.189,0.809,2.067,1.167
		c0.877,0.339,2.036,0.669,3.473,0.987c0.798,0.18,1.388,0.391,1.767,0.63c0.399,0.238,0.599,0.628,0.599,1.168
		c0,0.479-0.27,0.837-0.808,1.078c-0.52,0.218-1.147,0.327-1.887,0.327c-0.877,0-1.596-0.188-2.155-0.568
		c-0.54-0.378-0.808-0.918-0.808-1.615h-4.012c0.019,0.778,0.189,1.486,0.509,2.125c0.339,0.619,0.808,1.157,1.406,1.616
		c0.619,0.439,1.358,0.779,2.216,1.019c0.858,0.24,1.816,0.358,2.875,0.358c2.155,0,3.782-0.429,4.88-1.286
		c1.098-0.88,1.647-1.976,1.647-3.293c0-0.859-0.12-1.539-0.359-2.037C76.287,25.916,75.907,25.486,75.369,25.148z M90.889,19.07
		c-0.479-0.499-1.129-0.879-1.947-1.139c-0.798-0.26-1.775-0.389-2.934-0.389c-1.178,0-2.175,0.129-2.995,0.389
		c-0.818,0.24-1.487,0.589-2.006,1.049c-0.499,0.459-0.869,1.008-1.107,1.646c-0.22,0.639-0.339,1.337-0.36,2.098h3.624
		c0.1-0.66,0.339-1.189,0.718-1.589c0.399-0.398,1.048-0.6,1.947-0.6c0.757,0,1.357,0.141,1.795,0.421
		c0.459,0.258,0.688,0.628,0.688,1.107c0,0.519-0.17,0.897-0.509,1.138c-0.34,0.22-0.999,0.399-1.975,0.54
		c-0.979,0.139-1.888,0.298-2.726,0.479c-0.819,0.159-1.527,0.419-2.127,0.777c-0.598,0.36-1.067,0.858-1.406,1.498
		c-0.34,0.619-0.509,1.457-0.509,2.516c0,1.198,0.389,2.177,1.167,2.935c0.799,0.738,2.046,1.106,3.743,1.106
		c0.998,0,1.877-0.149,2.635-0.448c0.759-0.318,1.367-0.737,1.827-1.256c0.039,0.497,0.118,0.938,0.24,1.316h3.623v-9.313
		c0-0.918-0.109-1.737-0.329-2.455C91.746,20.158,91.387,19.549,90.889,19.07z M88.374,27.064c0,0.438-0.1,0.858-0.3,1.259
		c-0.18,0.378-0.429,0.718-0.748,1.019c-0.299,0.279-0.668,0.508-1.108,0.688c-0.419,0.157-0.879,0.237-1.377,0.237
		c-1.257,0-1.886-0.549-1.886-1.646c0-0.64,0.209-1.128,0.629-1.468c0.419-0.34,1.188-0.619,2.306-0.838
		c0.718-0.141,1.268-0.27,1.646-0.39s0.669-0.278,0.868-0.479L88.374,27.064z M99.223,21.705c0.28-0.34,0.601-0.578,0.959-0.719
		c0.358-0.139,0.75-0.209,1.168-0.209c0.74,0,1.356,0.22,1.855,0.658c0.52,0.42,0.829,1.009,0.928,1.767h3.922
		c-0.058-0.858-0.259-1.636-0.598-2.336c-0.34-0.698-0.809-1.296-1.408-1.796c-0.578-0.499-1.267-0.879-2.063-1.139
		c-0.78-0.26-1.647-0.389-2.606-0.389c-1.037,0-1.985,0.15-2.845,0.449c-0.837,0.299-1.557,0.759-2.156,1.377
		c-0.598,0.6-1.066,1.378-1.406,2.336c-0.32,0.958-0.479,2.097-0.479,3.414s0.159,2.475,0.479,3.473
		c0.34,0.978,0.81,1.808,1.406,2.486c0.6,0.657,1.309,1.157,2.128,1.497c0.837,0.318,1.757,0.478,2.755,0.478
		c0.898,0,1.727-0.139,2.484-0.418c0.777-0.28,1.466-0.67,2.064-1.168c0.601-0.499,1.09-1.099,1.467-1.797
		c0.399-0.698,0.648-1.478,0.75-2.336h-3.922c-0.08,0.799-0.393,1.407-0.93,1.826c-0.539,0.421-1.188,0.631-1.945,0.631
		c-0.76,0-1.43-0.392-2.008-1.169c-0.578-0.779-0.867-1.977-0.867-3.594c0-0.799,0.082-1.466,0.24-2.006
		C98.755,22.464,98.964,22.023,99.223,21.705z M122.282,18.8c-0.938-0.837-2.166-1.257-3.683-1.257c-0.498,0-0.979,0.061-1.438,0.18
		c-0.457,0.119-0.878,0.279-1.259,0.479c-0.377,0.199-0.717,0.448-1.016,0.748c-0.279,0.28-0.49,0.579-0.632,0.899v-7.307h-3.89
		v20.122h3.89V24.22c0-0.499,0.062-0.959,0.183-1.377c0.14-0.439,0.34-0.82,0.599-1.139c0.26-0.34,0.577-0.598,0.957-0.779
		c0.381-0.198,0.81-0.299,1.289-0.299c0.899,0,1.536,0.21,1.916,0.629c0.399,0.399,0.6,1.157,0.6,2.275v9.134h3.921V22.243
		C123.719,20.768,123.24,19.62,122.282,18.8z M135.65,26.915c0,0.799-0.279,1.456-0.84,1.978c-0.537,0.52-1.258,0.777-2.154,0.777
		c-1.657,0-2.487-0.918-2.487-2.755v-8.983h-3.89v9.552c0,0.818,0.129,1.558,0.389,2.217c0.279,0.639,0.658,1.197,1.139,1.677
		c0.479,0.459,1.047,0.817,1.707,1.078c0.655,0.239,1.375,0.358,2.154,0.358c0.917,0,1.736-0.18,2.455-0.539
		c0.738-0.379,1.248-0.897,1.527-1.557v1.729c0,0.479-0.08,0.919-0.24,1.316c-0.139,0.4-0.34,0.729-0.6,0.989
		c-0.24,0.28-0.519,0.489-0.838,0.629c-0.318,0.159-1.017,0.239-1.017,0.239h-2.34l-1.33,3.354h3.489c0,0,1.815-0.148,2.634-0.449
		c0.84-0.301,1.558-0.729,2.155-1.286c0.619-0.56,1.101-1.248,1.438-2.066c0.36-0.817,0.537-1.748,0.537-2.784V17.932h-3.892v8.983
		H135.65z M17.014,9.226c0-3.797,1.723-7.157,4.37-9.226C9.138,2.805,0,13.759,0,26.854C0,34.809,3.374,41.97,8.763,47
		c-1.239-3.766,2.362-7.55,3.675-8.453c2.959,0.516,4.56-0.331,4.985-1.591c-0.147-2.194-0.211-4.198,1.165-6.125
		c0.138-0.301,0.251-0.578,0.345-0.835c-0.204-1.141-2.991-1.332-3.991-1.684c1.103-0.117,3.949,0.22,4.339-1.133
		c-0.103-0.938-0.296-1.897,0.123-3.702c1.665-0.712,3.208-0.052,3.897-0.471c0.721-0.438,1.286-1.955,1.05-2.936
		C20.097,18.607,17.014,14.306,17.014,9.226z M71.954,15.696l2.536-3.153h-3.057l-1.346,1.687l-1.345-1.687h-3.035l2.448,3.153
		H71.954z"/>
	<path fill="#F37021" d="M152.425,21.705c0.281-0.34,0.599-0.578,0.959-0.719c0.358-0.139,0.75-0.209,1.169-0.209
		c0.736,0,1.355,0.22,1.854,0.658c0.521,0.42,0.829,1.009,0.928,1.767h3.924c-0.06-0.858-0.261-1.636-0.6-2.336
		c-0.341-0.698-0.808-1.296-1.407-1.796c-0.578-0.499-1.268-0.879-2.064-1.139c-0.779-0.26-1.647-0.389-2.605-0.389
		c-1.038,0-1.986,0.15-2.846,0.449c-0.836,0.299-1.557,0.759-2.154,1.377c-0.6,0.6-1.068,1.378-1.407,2.336
		c-0.321,0.958-0.479,2.097-0.479,3.414s0.158,2.475,0.479,3.473c0.339,0.978,0.81,1.808,1.407,2.486
		c0.598,0.657,1.309,1.157,2.127,1.497c0.838,0.318,1.756,0.478,2.754,0.478c0.898,0,1.727-0.139,2.485-0.418
		c0.778-0.28,1.467-0.67,2.065-1.168c0.6-0.499,1.088-1.099,1.467-1.797c0.4-0.698,0.649-1.478,0.748-2.336h-3.922
		c-0.078,0.799-0.39,1.407-0.928,1.826c-0.541,0.421-1.188,0.631-1.949,0.631c-0.758,0-1.427-0.392-2.005-1.169
		c-0.579-0.779-0.868-1.977-0.868-3.594c0-0.799,0.08-1.466,0.241-2.006C151.958,22.464,152.166,22.023,152.425,21.705z M33.732,0
		c2.646,2.068,4.37,5.429,4.37,9.226c0,5.08-3.082,9.381-7.337,10.846c-0.236,0.98,0.33,2.498,1.05,2.937
		c0.689,0.419,2.232-0.241,3.897,0.471c0.419,1.804,0.226,2.763,0.124,3.702c0.389,1.353,3.236,1.016,4.339,1.133
		c-1,0.352-3.788,0.543-3.992,1.684c0.094,0.257,0.208,0.534,0.345,0.835c1.376,1.927,1.313,3.931,1.166,6.125
		c0.425,1.26,2.026,2.106,4.985,1.591c1.312,0.903,4.913,4.688,3.675,8.453c5.389-5.029,8.762-12.191,8.762-20.146
		C55.116,13.759,45.978,2.805,33.732,0z M167.854,29.49l7.517-8.414v-3.145h-11.978v3.085h7.006l-7.515,8.653v2.995h12.694V29.49
		H167.854z M142.045,32.665h4.162v-4.043h-4.162V32.665z"/>
</g>
</svg>
